<svg width="280" height="326" viewBox="0 0 280 326" fill="none" xmlns="http://www.w3.org/2000/svg">
<g clip-path="url(#clip0_2158_4299)">
<path d="M90.5906 3.16187V25.7056H86.067V11.0432L80.0241 25.7056H76.5977L70.5236 11.0432V25.7056H66V3.16187H71.1362L78.3109 19.9243L85.4856 3.16187H90.5906Z" fill="#0F2334"/>
<path d="M98.3436 24.8503C96.9662 24.0857 95.8829 23.0028 95.0972 21.6051C94.3115 20.2039 93.917 18.5916 93.917 16.7614C93.917 14.9312 94.3219 13.3155 95.1284 11.9178C95.9348 10.52 97.0388 9.43712 98.4406 8.67252C99.8388 7.90792 101.403 7.52734 103.127 7.52734C104.85 7.52734 106.411 7.91138 107.813 8.67252C109.215 9.43712 110.319 10.52 111.125 11.9178C111.932 13.319 112.337 14.9312 112.337 16.7614C112.337 18.5916 111.921 20.2073 111.094 21.6051C110.263 23.0063 109.146 24.0857 107.733 24.8503C106.321 25.6149 104.743 25.9955 102.999 25.9955C101.254 25.9955 99.7246 25.6149 98.3471 24.8503H98.3436ZM105.307 21.4597C106.027 21.0619 106.605 20.4633 107.034 19.6676C107.463 18.8719 107.681 17.9031 107.681 16.7614C107.681 15.0592 107.235 13.7514 106.342 12.8381C105.449 11.9247 104.355 11.4645 103.061 11.4645C101.767 11.4645 100.687 11.9212 99.8146 12.8381C98.9424 13.7549 98.5063 15.0627 98.5063 16.7614C98.5063 18.4601 98.932 19.7714 99.7834 20.6848C100.635 21.6016 101.708 22.0583 102.999 22.0583C103.816 22.0583 104.587 21.8576 105.307 21.4597Z" fill="#0F2334"/>
<path d="M120.93 11.5277V20.184C120.93 20.786 121.075 21.222 121.366 21.4918C121.657 21.7617 122.148 21.8966 122.837 21.8966H124.938V25.7093H122.093C118.279 25.7093 116.375 23.8583 116.375 20.1529V11.5277H114.243V7.81198H116.375V3.38696H120.93V7.81198H124.938V11.5277H120.93Z" fill="#0F2334"/>
<path d="M155.745 9.57343C157.091 10.9193 157.762 12.7979 157.762 15.2094V25.7062H153.239V15.8217C153.239 14.424 152.882 13.3515 152.173 12.6076C151.463 11.8638 150.494 11.4936 149.265 11.4936C148.037 11.4936 147.064 11.8638 146.341 12.6076C145.618 13.3515 145.258 14.4205 145.258 15.8217V25.7062H140.734V15.8217C140.734 14.424 140.378 13.3515 139.668 12.6076C138.959 11.8638 137.989 11.4936 136.761 11.4936C135.532 11.4936 134.525 11.8638 133.805 12.6076C133.082 13.3515 132.722 14.4205 132.722 15.8217V25.7062H128.198V7.81588H132.722V9.97822C133.303 9.22399 134.051 8.63238 134.968 8.20337C135.882 7.77436 136.889 7.5564 137.989 7.5564C139.388 7.5564 140.641 7.85393 141.738 8.44555C142.835 9.03717 143.686 9.88135 144.292 10.9815C144.873 9.94708 145.718 9.1202 146.829 8.49399C147.936 7.87123 149.141 7.5564 150.432 7.5564C152.63 7.5564 154.402 8.23105 155.748 9.57343H155.745Z" fill="#0F2334"/>
<path d="M161.981 11.883C162.701 10.4853 163.684 9.40583 164.923 8.6516C166.162 7.89738 167.547 7.52026 169.076 7.52026C170.412 7.52026 171.582 7.79012 172.582 8.32638C173.583 8.86611 174.386 9.54422 174.991 10.3607V7.80742H179.546V25.7012H174.991V23.0857C174.41 23.9264 173.607 24.6183 172.582 25.1684C171.558 25.7185 170.381 25.9919 169.045 25.9919C167.536 25.9919 166.162 25.6044 164.927 24.8294C163.687 24.0544 162.708 22.9611 161.985 21.5495C161.261 20.138 160.901 18.5188 160.901 16.6886C160.901 14.8584 161.261 13.2773 161.985 11.8761L161.981 11.883ZM174.341 13.9346C173.908 13.1493 173.326 12.5473 172.596 12.1252C171.862 11.7066 171.077 11.4955 170.236 11.4955C169.395 11.4955 168.619 11.6996 167.91 12.1079C167.2 12.5161 166.622 13.1147 166.183 13.9C165.74 14.6854 165.522 15.6161 165.522 16.6955C165.522 17.775 165.743 18.7125 166.183 19.5221C166.622 20.3282 167.207 20.9475 167.927 21.38C168.647 21.8125 169.419 22.027 170.239 22.027C171.059 22.027 171.866 21.8159 172.6 21.3973C173.33 20.9787 173.915 20.3732 174.344 19.5879C174.773 18.8025 174.991 17.8614 174.991 16.7612C174.991 15.661 174.777 14.72 174.344 13.9346H174.341Z" fill="#0F2334"/>
<path d="M189.237 11.5277V20.184C189.237 20.786 189.383 21.222 189.674 21.4918C189.964 21.7617 190.456 21.8966 191.145 21.8966H193.245V25.7093H190.4C186.586 25.7093 184.683 23.8583 184.683 20.1529V11.5277H182.551V7.81198H184.683V3.38696H189.237V7.81198H193.245V11.5277H189.237Z" fill="#0F2334"/>
<path d="M213.018 18.1184H199.932C200.039 19.4089 200.492 20.4226 201.288 21.1561C202.084 21.8895 203.064 22.2528 204.23 22.2528C205.912 22.2528 207.106 21.5332 207.816 20.087H212.696C212.18 21.81 211.187 23.225 209.723 24.3356C208.259 25.4461 206.459 25.9997 204.327 25.9997C202.603 25.9997 201.06 25.6191 199.689 24.8545C198.322 24.0899 197.256 23.007 196.491 21.6093C195.726 20.2081 195.346 18.5958 195.346 16.7656C195.346 14.9354 195.723 13.2886 196.477 11.8874C197.232 10.4897 198.288 9.41022 199.644 8.656C201.001 7.90177 202.562 7.52466 204.331 7.52466C206.099 7.52466 207.556 7.89139 208.903 8.6214C210.249 9.35486 211.294 10.3928 212.038 11.7386C212.782 13.0845 213.153 14.631 213.153 16.3747C213.153 17.0217 213.111 17.6029 213.025 18.1184H213.018ZM208.463 15.0807C208.442 13.9183 208.02 12.9876 207.203 12.2853C206.383 11.5864 205.383 11.237 204.199 11.237C203.078 11.237 202.136 11.576 201.371 12.2541C200.606 12.9322 200.139 13.8733 199.966 15.0807H208.463Z" fill="#0F2334"/>
<path d="M130.6 5.66707C132.166 5.66707 133.435 4.39845 133.435 2.83353C133.435 1.26862 132.166 0 130.6 0C129.035 0 127.766 1.26862 127.766 2.83353C127.766 4.39845 129.035 5.66707 130.6 5.66707Z" fill="#0F2334"/>
</g>
<g clip-path="url(#clip1_2158_4299)">
<path d="M268.191 196.089C272.461 196.65 275.475 200.65 274.941 205.065C274.428 209.48 270.53 212.597 266.29 212.044C242.381 211.783 218.835 206.278 197.176 195.859C201.074 175.258 194.384 154.036 179.556 139.754C191.139 118.148 207.051 99.344 226.238 84.625C226.832 84.0337 227.545 83.5654 228.288 83.1815C232.186 81.3233 236.827 83.0893 238.624 87.1281C240.413 91.1591 238.705 95.9273 234.807 97.7854C216.957 109.648 207.111 130.932 209.42 152.738C209.791 157.859 211.358 162.804 213.95 167.188C224.508 186.2 244.549 197.448 265.726 196.181C266.55 196.035 267.374 196.005 268.206 196.089H268.191Z" fill="#142132"/>
<path d="M265.364 156.312C268.594 142.116 260.083 127.901 246.355 124.561C232.627 121.221 218.88 130.021 215.65 144.217C212.42 158.412 220.93 172.628 234.658 175.968C248.386 179.308 262.134 170.508 265.364 156.312Z" fill="#142132"/>
<path d="M164.212 192.192C167.337 178.46 158.776 164.629 145.092 161.299C131.408 157.97 117.782 166.403 114.658 180.136C111.533 193.868 120.093 207.699 133.777 211.028C147.461 214.358 161.087 205.924 164.212 192.192Z" stroke="#142132" stroke-width="20" stroke-miterlimit="10"/>
<path d="M201.92 246.627C216.013 246.627 227.456 258.459 227.456 273.032C227.456 287.605 216.013 299.438 201.92 299.438C187.827 299.438 176.385 287.636 176.385 273.032C176.385 258.428 187.827 246.627 201.92 246.627Z" fill="#142132"/>
<path d="M200.554 57.4518C204.453 59.333 206.109 64.1318 204.282 68.1399C196.656 91.543 184.301 113.027 168.017 131.101C150.285 120.92 128.708 120.92 110.976 131.101C94.6924 113.027 82.3367 91.543 74.711 68.1399C74.3694 67.372 74.1392 66.5198 74.0278 65.6675C73.5452 61.2525 76.5896 57.2752 80.8294 56.7454C85.0989 56.2156 88.9675 59.3637 89.4798 63.7786C94.8632 85.0011 111.399 101.248 132.153 105.755C136.994 106.961 142.028 106.961 146.84 105.755C167.616 101.248 184.13 85.0011 189.535 63.7786C189.617 62.9264 189.847 62.1048 190.218 61.3063C192.038 57.3059 196.649 55.563 200.554 57.4518Z" fill="#142132"/>
<path d="M167.482 312.03C167.883 312.767 168.165 313.588 168.336 314.441C169.131 318.794 166.368 323.009 162.158 323.862C157.948 324.683 153.872 321.835 153.077 317.473C145.934 293.894 143.744 269.024 146.617 244.508C166.769 241.974 184.219 228.852 192.787 209.833C216.214 214.57 238.416 224.406 257.885 238.711C258.627 239.125 259.281 239.686 259.852 240.3C262.756 243.571 262.555 248.662 259.422 251.664C256.266 254.666 251.336 254.489 248.432 251.218C232.008 237.329 209.405 234.234 190.047 243.21C185.436 245.153 181.367 248.216 178.152 252.132C163.918 268.379 159.767 291.575 167.475 312.03H167.482Z" fill="#142132"/>
<path d="M139.496 48C153.612 48 165.032 59.8014 165.032 74.4053C165.032 89.0092 153.619 100.78 139.496 100.78C125.374 100.78 113.961 88.9785 113.961 74.4053C113.961 59.8321 125.411 48 139.496 48Z" fill="#142132"/>
<path d="M132.383 244.508C135.286 269.024 133.096 293.902 125.952 317.474C125.782 318.326 125.5 319.124 125.099 319.885C122.99 323.739 118.267 325.121 114.51 322.971C110.783 320.791 109.446 315.877 111.547 312.022C119.233 291.567 115.104 268.372 100.848 252.125C97.6325 248.209 93.5635 245.145 88.9747 243.203C69.617 234.227 47.0145 237.313 30.5898 251.211C30.018 251.833 29.3646 252.363 28.6295 252.8C24.8723 254.919 20.1498 253.507 18.0708 249.621C15.9917 245.736 17.3579 240.853 21.1151 238.703C40.5842 224.399 62.7857 214.571 86.2422 209.825C94.8109 228.837 112.26 241.966 132.383 244.5V244.508Z" fill="#142132"/>
<path d="M77.0722 246.627C91.1876 246.627 102.608 258.459 102.608 273.032C102.608 287.605 91.1951 299.438 77.0722 299.438C62.9493 299.438 51.5664 287.636 51.5664 273.032C51.5664 258.428 62.979 246.627 77.0722 246.627Z" fill="#142132"/>
<path d="M56.5625 168.932C66.5348 158.62 66.5348 141.901 56.5625 131.589C46.5903 121.277 30.4221 121.277 20.4499 131.589C10.4776 141.901 10.4776 158.62 20.4499 168.932C30.4221 179.244 46.5903 179.244 56.5625 168.932Z" fill="#142132"/>
<path d="M12.7471 212.037C11.9229 212.152 11.069 212.129 10.267 211.952C6.0569 211.1 3.32441 206.862 4.14861 202.5C5.00252 198.147 9.07156 195.321 13.2891 196.174C34.4957 197.441 54.5365 186.192 65.0952 167.181C67.6866 162.797 69.2534 157.852 69.6246 152.73C71.9042 130.917 62.0805 109.64 44.2302 97.7777C43.4654 97.4245 42.7823 96.9561 42.1511 96.3649C39.0177 93.332 38.8469 88.2414 41.8096 85.0012C44.7425 81.761 49.6358 81.5844 52.799 84.6173C71.9562 99.3364 87.8685 118.14 99.4816 139.747C84.6237 154.02 77.9632 175.243 81.8615 195.851C60.202 206.27 36.6342 211.776 12.7471 212.037Z" fill="#142132"/>
</g>
<defs>
<clipPath id="clip0_2158_4299">
<rect width="147.149" height="26" fill="white" transform="translate(66)"/>
</clipPath>
<clipPath id="clip1_2158_4299">
<rect width="271" height="276" fill="white" transform="translate(4 48)"/>
</clipPath>
</defs>
</svg>
