<svg width="393" height="386" viewBox="0 0 393 386" fill="none" xmlns="http://www.w3.org/2000/svg">
<path opacity="0.36" d="M393 0H0V386H393V0Z" fill="url(#paint0_radial_2455_991)"/>
<g clip-path="url(#clip0_2455_991)">
<path d="M242.151 151.814C242.151 151.814 259.798 187.634 255.588 220.279C255.588 220.279 205.77 238.715 181.826 230.277L169.723 141.956C169.723 141.956 179.704 133.711 192.421 128.852C205.139 123.993 211.577 144.131 211.577 144.131L242.169 151.814H242.151Z" fill="#FFB6B2"/>
<path d="M178.423 188.3C178.423 188.3 169.828 207.49 158.742 210.63C152.883 212.296 139.218 207.946 127.623 203.491C117.291 199.509 108.608 195.422 108.608 195.422L103.819 170.109L119.273 174.898L149.147 184.16C149.147 184.16 156.426 160.005 158.233 154.217C160.057 148.428 171.968 140.324 171.968 140.324C189.387 160.339 178.423 188.3 178.423 188.3Z" fill="#FFB6B2"/>
<path d="M192.423 128.852C192.423 128.852 196.826 124.8 220.84 126.484C244.854 128.168 281.569 135.781 291.725 144.587C301.882 153.393 312.705 198.054 312.705 198.054L325.914 213.262C325.914 213.262 326.44 216.314 324.721 216.227C324.721 216.227 327.387 222.577 323.949 222.664C323.949 222.664 324.896 227.646 321.809 227.383L312.459 219.91L319.16 232.014C319.16 232.014 318.476 235.452 314.441 234.154L303.373 218.454C303.373 218.454 298.216 226.173 293.164 225.243C288.094 224.296 293.76 219.665 294.883 215.542C296.005 211.42 297.023 207.386 297.023 207.386C297.023 207.386 275.868 172.057 269.395 164.111L246.468 162.637L208.754 160.234C208.754 160.234 193.3 151.814 192.423 128.852Z" fill="#FFB6B2"/>
<path d="M127.623 203.492C117.291 199.51 108.608 195.422 108.608 195.422L103.819 170.11L119.273 174.899C125.869 185.968 127.342 197.492 127.623 203.492Z" fill="#F67B7A"/>
<path d="M254.659 227.98L235.679 289.656C235.679 289.656 253.168 352.209 254.659 368.224L232.118 366.452C232.118 366.452 205.438 320.195 199.509 303.303C193.58 286.41 202.473 244.89 202.473 244.89L254.659 227.997V227.98Z" fill="#FFB6B2"/>
<path d="M266.727 314.248L197.473 288.462L199.14 264.693L169.705 263.553C169.705 263.553 159.759 288.163 168.372 299.723C176.985 311.283 259.202 336.788 259.202 336.788L266.727 314.248Z" fill="#FFB6B2"/>
<path d="M150.041 122.556C150.041 122.556 141.568 104.348 156.479 96.7001C171.389 89.0695 183.3 98.2964 181.844 119.855L194.053 130.082L176.686 139.326L174.599 135.011C174.599 135.011 171.389 138.958 165.232 138.589C159.075 138.221 154.514 129.468 154.514 129.468C154.514 129.468 151.374 131.257 151.251 130.766C151.128 130.274 151.129 125.1 151.006 124.293C150.883 123.486 150.058 122.556 150.058 122.556H150.041Z" fill="#FFB6B2"/>
<path d="M167.426 113.1C167.426 113.1 166.794 108.714 170.846 107.592C174.898 106.469 176.302 109.925 176.758 112.731C177.231 115.538 174.986 117.59 174.986 117.59C174.986 117.59 175.179 124.028 177.88 124.396C180.582 124.765 180.775 121.134 180.775 121.134C180.775 121.134 181.003 124.116 182.985 123.309C184.967 122.502 184.722 121.432 184.722 121.432C184.722 121.432 185.318 122.432 186.371 121.572C187.423 120.713 186.914 119.695 186.914 119.695C186.914 119.695 190.44 119.45 190.808 116.696C191.159 113.942 185.704 113.889 185.704 113.889C185.704 113.889 194.019 113.784 194.317 110.837C194.615 107.89 188.967 108.749 188.967 108.749C188.967 108.749 195.176 106.995 195.299 102.663C195.422 98.3298 187.458 100.523 187.458 100.523C187.458 100.523 196.176 92.8569 192.352 87.9102C188.528 82.9459 181.336 90.7344 181.336 90.7344C181.336 90.7344 188.511 78.3676 175.144 77.1222C161.777 75.8592 158.129 88.0505 158.129 88.0505C158.129 88.0505 156.568 78.6307 149.779 81.5251C143.008 84.4194 143.692 93.1375 143.692 93.1375C143.692 93.1375 132.711 91.9096 131.834 100.751C130.957 109.591 139.745 109.206 139.745 109.206C139.745 109.206 135.535 111.153 136.044 113.977C136.553 116.801 145.341 114.854 145.341 114.854C145.341 114.854 144.025 121.379 147.218 121.625C150.41 121.871 151.428 114.029 151.428 114.029C151.428 114.029 152.621 117.485 155.129 117.608C157.638 117.731 159.269 111.451 159.269 111.451C159.269 111.451 161.128 117.555 167.408 113.117L167.426 113.1Z" fill="#142132"/>
<path d="M119.245 197.689C122.691 183.193 113.733 168.648 99.2364 165.203C84.7403 161.757 70.1957 170.715 66.7503 185.212C63.3048 199.708 72.2632 214.252 86.7593 217.698C101.255 221.143 115.8 212.185 119.245 197.689Z" fill="#A0C296"/>
<path d="M168.04 143.255C168.04 143.255 180.214 168.357 176.583 191.968C176.583 191.968 179.652 215.245 174.706 229.366C174.706 229.366 208.789 247.048 259.203 221.578C259.203 221.578 257.449 179.864 249.275 170.023C249.275 170.023 235.487 179.934 225.418 169.725C215.349 159.534 211.017 134.677 216.367 126.065C216.367 126.065 204.772 125.872 200.176 126.065C200.176 126.065 202.211 151.5 190.739 156.078C179.267 160.674 175.793 137.537 175.793 137.537L168.022 143.238L168.04 143.255Z" fill="#795069"/>
<path d="M177.758 230.68L160.936 282.568L197.474 285.357L197.527 282.901L243.766 282.585C243.766 282.585 256.396 244.485 256.238 223.05C256.238 223.05 214.507 240.556 177.758 230.68Z" fill="#EA974C"/>
<path d="M254.081 363.804C254.081 363.804 257.168 376.837 256.063 379.17C254.94 381.503 244.837 381.521 244.837 381.521C244.837 381.521 208.315 384.432 207.701 380.398C207.087 376.363 227.313 364.874 227.313 364.874C227.313 364.874 227.014 360.962 233.522 361.611C240.03 362.26 239.714 365.716 239.714 365.716C239.714 365.716 245.871 367.435 254.081 363.786V363.804Z" fill="#1D3D5E"/>
<path d="M258.834 311.264C258.834 311.264 271.675 307.476 274.078 308.475C276.481 309.475 277.025 319.562 277.025 319.562C277.025 319.562 281.866 355.872 277.867 356.697C273.885 357.539 261.325 337.945 261.325 337.945C261.325 337.945 257.449 338.454 257.729 331.911C258.028 325.368 261.501 325.526 261.501 325.526C261.501 325.526 262.904 319.298 258.817 311.282L258.834 311.264Z" fill="#1D3D5E"/>
<path d="M197.527 282.886L202.474 244.873C202.474 244.873 194.458 244.54 192.423 241.681" stroke="#142132" stroke-width="1.31561" stroke-linecap="round" stroke-linejoin="round"/>
<path d="M243.731 172.882C243.731 172.882 254.888 198.65 252.327 219.752" stroke="#142132" stroke-width="1.31561" stroke-linecap="round" stroke-linejoin="round"/>
<path d="M259.203 216.893C259.203 216.893 224.103 236.154 175.601 226.383" stroke="#142132" stroke-width="1.31561" stroke-linecap="round" stroke-linejoin="round"/>
<path d="M248.221 225.927C248.221 225.927 248.501 260.203 237.854 282.621" stroke="#142132" stroke-width="1.31561" stroke-linecap="round" stroke-linejoin="round"/>
<path d="M239.661 304.162L247.151 332.93" stroke="#F67B7A" stroke-width="1.31561" stroke-linecap="round" stroke-linejoin="round"/>
<path d="M197.527 282.883C197.808 288.303 196.422 305.213 206.281 318.615" stroke="#F67B7A" stroke-width="1.31561" stroke-linecap="round" stroke-linejoin="round"/>
<path d="M246.467 162.654L237.837 162.093" stroke="#F67B7A" stroke-width="1.31561" stroke-linecap="round" stroke-linejoin="round"/>
<path d="M269.377 164.129L274.394 159.41" stroke="#F67B7A" stroke-width="1.31561" stroke-linecap="round" stroke-linejoin="round"/>
<path d="M323.947 222.683L314.668 213.474" stroke="#F67B7A" stroke-width="1.31561" stroke-linecap="round" stroke-linejoin="round"/>
<path d="M169.232 114.558C169.232 114.558 168.233 110.734 171.372 109.4C174.512 108.067 177.354 113.979 172.776 117.522C172.776 117.522 172.548 115.873 171.215 116.014C169.881 116.154 170.425 118.066 170.425 118.066" stroke="#F67B7A" stroke-width="0.771826" stroke-linecap="round" stroke-linejoin="round"/>
<path d="M174.144 116.116C174.144 116.116 173.512 109.328 170.39 109.994" stroke="#F67B7A" stroke-width="0.771826" stroke-linecap="round" stroke-linejoin="round"/>
<path d="M174.583 135.011C174.583 135.011 177.39 131.695 177.179 127.38" stroke="#F67B7A" stroke-width="0.771826" stroke-linecap="round" stroke-linejoin="round"/>
<path d="M174.583 135.011L176.67 139.326L177.162 127.38L176.232 132.327L174.583 135.011Z" fill="#F67B7A"/>
<path d="M71.4375 207.683L115.888 177.178" stroke="#FAF3EF" stroke-width="1.75415" stroke-miterlimit="10"/>
<path d="M66.1943 188.334C66.1943 188.334 79.789 185.335 88.016 196.316C96.2429 207.297 95.6816 218.313 95.6816 218.313" stroke="#FAF3EF" stroke-width="1.75415" stroke-miterlimit="10"/>
<path d="M111.573 210.999C111.573 210.999 99.4343 180.881 82.4541 166.602" stroke="#FAF3EF" stroke-width="1.75415" stroke-miterlimit="10"/>
<path d="M119.977 194.703C119.977 194.703 106.575 184.178 102.733 166.602" stroke="#FAF3EF" stroke-width="1.75415" stroke-miterlimit="10"/>
<path d="M149.148 184.16L157.937 188.809" stroke="#F67B7A" stroke-width="1.31561" stroke-linecap="round" stroke-linejoin="round"/>
<path d="M324.72 216.245L317.546 209.246" stroke="#F67B7A" stroke-width="1.31561" stroke-linecap="round" stroke-linejoin="round"/>
</g>
<defs>
<radialGradient id="paint0_radial_2455_991" cx="0" cy="0" r="1" gradientUnits="userSpaceOnUse" gradientTransform="translate(113 158.5) rotate(-125.863) scale(204.832 208.546)">
<stop offset="0.55" stop-color="#EA974C" stop-opacity="0.3"/>
<stop offset="0.91" stop-color="white" stop-opacity="0"/>
<stop offset="1" stop-color="white" stop-opacity="0.36"/>
</radialGradient>
<clipPath id="clip0_2455_991">
<rect width="260" height="305.538" fill="white" transform="translate(66 77)"/>
</clipPath>
</defs>
</svg>
