<svg width="20" height="20" viewBox="0 0 20 20" fill="none" xmlns="http://www.w3.org/2000/svg">
<path d="M8.24967 3.53325C8.82328 3.39898 9.41056 3.33187 9.99967 3.33325C13.8743 3.33325 16.646 6.2746 18.0705 8.24983C18.8294 9.30217 18.8311 10.7013 18.0719 11.7534C17.8482 12.0635 17.6128 12.3653 17.3663 12.6583M11.7663 11.7666C11.5375 12.0122 11.2615 12.2092 10.9548 12.3459C10.6481 12.4825 10.3171 12.556 9.98142 12.5619C9.64574 12.5678 9.31231 12.5061 9.00102 12.3803C8.68972 12.2546 8.40694 12.0674 8.16955 11.83C7.93215 11.5926 7.745 11.3099 7.61926 10.9986C7.49353 10.6873 7.43178 10.3539 7.4377 10.0182C7.44362 9.6825 7.5171 9.35146 7.65374 9.04479C7.79038 8.73813 7.98738 8.46213 8.23301 8.23325M0.833008 0.833252L19.1663 19.1666M14.9497 14.9499C13.5252 16.0358 11.7906 16.6373 9.99967 16.6666C6.12719 16.6666 3.35646 13.7286 1.93129 11.7534C1.17081 10.6994 1.17009 9.29732 1.93297 8.24506C2.80877 7.03705 3.85796 5.95993 5.04967 5.04992L14.9497 14.9499Z" stroke="#9EA8B3" stroke-width="1.25" stroke-linecap="round" stroke-linejoin="round"/>
</svg>
