<svg width="20" height="20" viewBox="0 0 20 20" fill="none" xmlns="http://www.w3.org/2000/svg">
<path d="M10.0096 16.6999C11.8005 16.6706 13.5351 16.0691 14.9596 14.9833C16.1513 14.0733 17.2005 12.9961 18.0763 11.7881C18.8392 10.7358 18.8385 9.33379 18.078 8.2798C16.6528 6.30459 13.8821 3.3666 10.0096 3.3666M10.0096 16.6999C6.1371 16.6999 3.36638 13.7619 1.94121 11.7867C1.18072 10.7327 1.18 9.33066 1.94288 8.2784C2.81868 7.07039 3.86787 5.99327 5.05959 5.08326C6.4841 3.99743 8.21867 3.39588 10.0096 3.3666M10.0096 16.6999C10.5987 16.7013 11.186 16.6342 11.7596 16.4999M10.0096 16.6999C6.13491 16.6999 3.36324 13.7586 1.93879 11.7833C1.17989 10.731 1.17816 9.33185 1.93736 8.27973C2.1611 7.96966 2.39644 7.66784 2.64292 7.37491M8.25959 3.5666C8.8332 3.43233 9.42048 3.36521 10.0096 3.3666M10.0096 3.3666C13.8843 3.3666 16.6559 6.30794 18.0804 8.28317C18.8393 9.33551 18.841 10.7347 18.0818 11.7868C17.8581 12.0968 17.6227 12.3987 17.3763 12.6916M11.7763 11.7999C11.5474 12.0456 11.2714 12.2426 10.9647 12.3792C10.6581 12.5158 10.327 12.5893 9.99133 12.5952C9.65565 12.6012 9.32222 12.5394 9.01093 12.4137C8.69964 12.2879 8.41686 12.1008 8.17946 11.8634C7.94206 11.626 7.75492 11.3432 7.62918 11.0319C7.50344 10.7206 7.44169 10.3872 7.44762 10.0515C7.45354 9.71585 7.52701 9.3848 7.66365 9.07814C7.80029 8.77147 7.9973 8.49547 8.24292 8.2666C8.4718 8.02098 8.7478 7.82395 9.05446 7.68731C9.36113 7.55067 9.69217 7.47719 10.0278 7.47127C10.3635 7.46535 10.697 7.5271 11.0082 7.65283C11.3195 7.77857 11.6023 7.96572 11.8397 8.20312C12.0771 8.44051 12.2643 8.72329 12.39 9.03458C12.5157 9.34588 12.5775 9.67931 12.5716 10.015C12.5656 10.3507 12.4922 10.6817 12.3555 10.9884C12.2189 11.295 12.0219 11.5711 11.7763 11.7999Z" stroke="#9EA8B3" stroke-width="1.25" stroke-linecap="round" stroke-linejoin="round"/>
</svg>
